# xmcd
#
# Track frame offsets: 
#        183
#        19008
#        28630
#        39895
#        56540
#        79083
#        95683
#        118033
#        129570
#        147370
#        165970
#        185448
#
# Disc length: 2687 seconds
#
# Revision: 0
# Processed by: cddbd v1.5.1PL0 Copyright (c) Steve Scherf et al.
# Submitted via: ExactAudioCopy v0.95a4
#
DISCID=940a7d0c
DTITLE=Gé Reinders - Blood
DYEAR=1991
DGENRE=
TTITLE0=Toledo
TTITLE1=Don't Keep Me Waiting
TTITLE2=Slipping Away
TTITLE3=Stolen Love
TTITLE4=My Blood
TTITLE5=Le Dimanche
TTITLE6=Five Bright Boys
TTITLE7=The Wedding Ring
TTITLE8=Mien Moder In 45
TTITLE9=The Canal
TTITLE10=Driving
TTITLE11=Old Love Dies Hard
EXTD=
EXTT0=
EXTT1=
EXTT2=
EXTT3=
EXTT4=
EXTT5=
EXTT6=
EXTT7=
EXTT8=
EXTT9=
EXTT10=
EXTT11=
PLAYORDER=
